<?xml version="1.0" standalone="no"?>
<!DOCTYPE svg PUBLIC "-//W3C//DTD SVG 20010904//EN"
 "http://www.w3.org/TR/2001/REC-SVG-20010904/DTD/svg10.dtd">
<svg version="1.0" xmlns="http://www.w3.org/2000/svg"
 width="1126.000000pt" height="142.000000pt" viewBox="0 0 1126.000000 142.000000"
 preserveAspectRatio="xMidYMid meet">
<metadata>
Created by potrace 1.16, written by Peter Selinger 2001-2019
</metadata>
<g transform="translate(0.000000,142.000000) scale(0.100000,-0.100000)"
fill="#B53F41" stroke="none">
<path d="M3067 1042 c-32 -35 -10 -84 37 -84 35 0 49 13 49 48 0 48 -55 71
-86 36z"/>
<path d="M3587 1042 c-32 -35 -10 -84 37 -84 35 0 49 13 49 48 0 48 -55 71
-86 36z"/>
<path d="M5406 1041 c-23 -26 -17 -63 14 -78 33 -16 64 3 68 43 6 49 -49 72
-82 35z"/>
<path d="M6086 1041 c-23 -26 -17 -63 14 -78 33 -16 64 3 68 43 6 49 -49 72
-82 35z"/>
<path d="M7015 1049 c-82 -15 -95 -19 -95 -29 0 -6 11 -10 25 -10 14 0 29 -8
35 -19 6 -12 10 -104 10 -231 0 -219 -5 -250 -40 -250 -11 0 -20 -7 -20 -15 0
-12 18 -15 105 -15 83 0 105 3 105 14 0 8 -11 17 -24 20 -33 8 -36 32 -36 307
0 132 -3 238 -7 238 -5 -1 -30 -5 -58 -10z"/>
<path d="M9021 1046 c-35 -6 -66 -17 -69 -23 -2 -7 3 -13 11 -13 9 0 23 -7 31
-16 14 -13 16 -48 16 -230 0 -223 -5 -254 -40 -254 -11 0 -20 -7 -20 -15 0
-12 18 -15 100 -15 82 0 100 3 100 15 0 8 -7 15 -15 15 -18 0 -35 39 -35 79 0
25 34 71 44 60 2 -2 23 -33 46 -69 39 -60 40 -65 21 -68 -12 -2 -21 -10 -21
-18 0 -11 21 -14 105 -14 87 0 105 3 105 15 0 8 -8 15 -18 15 -23 0 -44 23
-116 126 l-56 81 55 52 c36 34 62 51 79 51 16 0 26 6 26 15 0 12 -17 15 -95
15 -78 0 -95 -3 -95 -15 0 -10 10 -15 30 -15 17 0 30 -4 30 -8 0 -10 -123
-132 -133 -132 -4 0 -7 86 -7 190 0 105 -3 189 -7 189 -5 -1 -37 -7 -72 -13z"/>
<path d="M9811 1046 c-61 -10 -97 -36 -52 -36 36 0 41 -30 41 -250 0 -219 -5
-250 -40 -250 -11 0 -20 -7 -20 -15 0 -12 19 -15 110 -15 112 0 140 11 81 31
-27 9 -30 16 -37 65 -7 60 2 158 19 189 25 48 89 61 123 24 16 -18 20 -40 22
-135 4 -121 -3 -144 -39 -144 -11 0 -19 -7 -19 -15 0 -12 18 -15 105 -15 84 0
105 3 105 14 0 8 -10 16 -22 18 -27 4 -37 44 -37 161 -1 117 -28 160 -111 180
-36 9 -98 -8 -126 -34 l-24 -22 0 131 c0 73 -3 131 -7 131 -5 -1 -37 -7 -72
-13z"/>
<path d="M180 1005 c0 -8 8 -15 18 -15 39 0 42 -16 42 -240 0 -229 -2 -240
-47 -240 -14 0 -23 -6 -23 -15 0 -13 21 -15 125 -15 104 0 125 2 125 15 0 9
-9 15 -24 15 -40 0 -50 23 -50 128 l-1 97 130 0 130 0 3 -85 c3 -99 -10 -133
-51 -138 -15 -2 -27 -9 -27 -18 0 -11 23 -14 125 -14 104 0 125 2 125 15 0 9
-9 15 -23 15 -45 0 -47 11 -47 240 0 224 3 240 42 240 10 0 18 7 18 15 0 13
-20 15 -120 15 -98 0 -120 -3 -120 -14 0 -9 12 -16 27 -18 39 -4 53 -39 53
-130 l0 -78 -136 0 -137 0 5 90 c6 96 17 120 54 120 15 0 24 6 24 15 0 13 -20
15 -120 15 -100 0 -120 -2 -120 -15z"/>
<path d="M4705 1010 c-3 -6 5 -14 19 -20 14 -5 30 -18 35 -29 7 -12 11 -94 11
-208 0 -208 -6 -236 -53 -241 -16 -2 -27 -9 -27 -19 0 -24 356 -14 424 13 101
40 159 125 159 234 0 77 -18 123 -69 180 -46 51 -91 75 -169 89 -74 14 -322
15 -330 1z m353 -54 c71 -37 107 -120 100 -234 -5 -90 -25 -134 -77 -169 -61
-41 -152 -42 -192 -2 -18 18 -19 34 -19 225 l0 207 78 -6 c44 -2 93 -12 110
-21z"/>
<path d="M7300 1006 c0 -7 13 -16 30 -19 16 -4 36 -17 45 -31 9 -14 54 -127
100 -253 81 -223 84 -228 111 -228 27 0 30 6 71 115 24 63 55 146 70 185 l26
70 62 -185 c58 -173 63 -185 88 -188 33 -4 30 -9 121 240 90 249 97 263 136
277 54 18 23 31 -76 31 -73 0 -94 -3 -94 -14 0 -7 14 -16 30 -19 24 -5 30 -12
30 -31 0 -24 -96 -314 -109 -328 -8 -9 -101 291 -101 326 0 19 6 27 25 32 14
3 25 12 25 20 0 11 -24 14 -120 14 -96 0 -120 -3 -120 -14 0 -8 11 -17 25 -20
14 -4 32 -17 41 -31 15 -23 14 -31 -36 -167 -28 -78 -55 -148 -59 -156 -9 -17
-125 307 -119 335 2 11 14 19 31 21 15 2 27 9 27 18 0 11 -24 14 -130 14 -104
0 -130 -3 -130 -14z"/>
<path d="M3336 905 c-9 -14 -35 -34 -57 -45 -44 -23 -47 -43 -6 -48 l27 -3 0
-145 c0 -180 9 -194 120 -184 38 3 60 18 60 42 0 17 -3 19 -12 10 -18 -18 -56
-14 -68 7 -5 11 -10 76 -10 145 l0 126 40 0 c33 0 40 3 40 20 0 17 -7 20 -40
20 l-40 0 0 40 c0 33 -4 40 -19 40 -10 0 -26 -11 -35 -25z"/>
<path d="M6360 910 c-6 -11 -31 -31 -55 -46 -50 -29 -59 -54 -20 -54 l25 0 0
-119 c0 -145 6 -178 36 -198 51 -33 154 -10 154 36 0 12 -3 12 -12 3 -15 -15
-51 -15 -66 0 -8 8 -12 55 -12 145 l0 133 40 0 c33 0 40 3 40 20 0 17 -7 20
-40 20 l-40 0 0 40 c0 33 -3 40 -20 40 -10 0 -24 -9 -30 -20z"/>
<path d="M1395 848 c-74 -15 -85 -18 -85 -28 0 -6 9 -10 20 -10 32 0 40 -32
40 -157 0 -123 -6 -143 -42 -143 -10 0 -18 -7 -18 -15 0 -12 19 -15 110 -15
91 0 110 3 110 15 0 8 -8 15 -19 15 -36 0 -43 24 -39 139 3 100 5 112 27 135
34 36 82 35 110 0 18 -23 21 -41 21 -138 0 -116 -6 -136 -42 -136 -10 0 -18
-7 -18 -15 0 -12 19 -15 110 -15 91 0 110 3 110 15 0 8 -8 15 -19 15 -36 0
-43 24 -39 139 3 100 5 112 27 135 34 36 82 35 110 0 18 -23 21 -41 21 -138 0
-116 -6 -136 -42 -136 -10 0 -18 -7 -18 -15 0 -12 19 -15 110 -15 91 0 110 3
110 15 0 8 -8 15 -19 15 -33 0 -39 22 -42 152 -4 122 -5 129 -30 154 -49 49
-158 51 -221 4 l-29 -21 -26 20 c-57 46 -140 46 -202 2 l-30 -22 -8 29 c-8 27
-10 28 -48 20z"/>
<path d="M2205 854 c-11 -3 -30 -7 -42 -9 -32 -7 -53 -33 -53 -65 0 -19 6 -31
19 -35 27 -8 43 1 69 40 17 27 29 35 52 35 34 0 50 -23 50 -72 0 -33 -3 -35
-85 -72 -47 -21 -95 -50 -105 -64 -28 -35 -25 -77 6 -109 23 -22 32 -25 80
-21 42 4 61 11 82 31 33 32 42 34 42 9 0 -10 5 -23 12 -30 15 -15 72 -16 99
-2 26 14 24 37 -3 36 -22 -1 -23 2 -29 124 -7 147 -11 166 -48 185 -30 15
-114 26 -146 19z m74 -290 c-28 -30 -74 -32 -89 -4 -15 28 2 55 58 91 l47 30
3 -47 c3 -37 -1 -51 -19 -70z"/>
<path d="M2707 845 c-21 -7 -46 -20 -56 -29 -24 -22 -31 -20 -31 9 0 29 -12
31 -90 14 -56 -12 -64 -24 -21 -32 36 -8 41 -25 41 -155 0 -110 -9 -142 -40
-142 -11 0 -20 -7 -20 -15 0 -12 18 -15 105 -15 87 0 105 3 105 15 0 8 -9 15
-20 15 -31 0 -42 44 -38 141 5 113 26 153 84 157 65 5 78 -18 82 -148 4 -115
-5 -150 -38 -150 -11 0 -20 -7 -20 -15 0 -12 18 -15 105 -15 87 0 105 3 105
15 0 8 -9 15 -19 15 -11 0 -23 5 -27 12 -5 7 -11 67 -14 135 -5 112 -8 124
-30 148 -14 15 -32 30 -40 35 -32 16 -86 19 -123 5z"/>
<path d="M3100 848 c-97 -16 -110 -19 -110 -28 0 -6 8 -10 19 -10 35 0 45 -28
49 -134 4 -114 -6 -152 -43 -166 -53 -20 -25 -30 85 -30 91 0 110 3 110 15 0
8 -9 15 -19 15 -11 0 -23 6 -28 13 -4 6 -10 84 -13 172 l-5 161 -45 -8z"/>
<path d="M3620 848 c-97 -16 -110 -19 -110 -28 0 -6 8 -10 19 -10 35 0 45 -28
49 -134 4 -114 -6 -152 -43 -166 -53 -20 -25 -30 85 -30 91 0 110 3 110 15 0
8 -9 15 -19 15 -11 0 -23 6 -28 13 -4 6 -10 84 -13 172 l-5 161 -45 -8z"/>
<path d="M3929 851 c-92 -18 -152 -94 -152 -190 0 -115 70 -182 190 -182 55 0
110 20 138 51 25 28 2 34 -42 10 -96 -51 -183 1 -183 110 l0 40 120 0 c139 0
145 4 114 78 -28 68 -98 100 -185 83z m81 -51 c11 -11 20 -31 20 -45 0 -24 -2
-25 -70 -25 -81 0 -89 12 -41 61 34 34 63 37 91 9z"/>
<path d="M4264 846 c-41 -18 -64 -52 -64 -94 0 -47 23 -76 96 -122 71 -45 92
-82 59 -107 -44 -31 -99 -7 -125 56 -19 47 -35 32 -38 -37 -2 -49 0 -62 12
-62 8 0 16 5 18 12 3 9 11 9 34 0 64 -25 125 -19 163 17 24 23 31 37 31 68 0
52 -19 76 -102 129 -64 42 -69 47 -66 77 3 29 6 32 38 32 28 0 38 -6 55 -32
30 -47 45 -42 45 16 0 46 -1 48 -27 47 -16 0 -44 3 -63 6 -22 5 -47 2 -66 -6z"/>
<path d="M5440 848 c-97 -16 -110 -19 -110 -28 0 -6 8 -10 18 -10 36 0 42 -20
42 -150 0 -130 -6 -150 -42 -150 -10 0 -18 -7 -18 -15 0 -12 19 -15 110 -15
91 0 110 3 110 15 0 8 -8 15 -19 15 -35 0 -40 23 -43 186 l-3 160 -45 -8z"/>
<path d="M5715 851 c-88 -22 -128 -98 -90 -171 8 -16 25 -34 36 -41 21 -11 20
-11 -9 -29 -33 -21 -47 -49 -37 -80 9 -29 36 -40 133 -56 94 -15 122 -32 122
-75 0 -41 -37 -62 -106 -61 -83 1 -120 46 -78 93 16 17 15 19 -12 29 -90 35
-131 -84 -45 -134 42 -24 159 -33 220 -16 100 27 133 116 69 185 -30 31 -42
36 -121 49 -127 20 -143 46 -36 61 94 13 147 75 134 156 -8 47 8 58 52 36 36
-18 53 -12 53 19 0 37 -38 48 -96 28 -34 -12 -53 -13 -73 -5 -41 15 -83 20
-116 12z m75 -50 c5 -11 10 -44 10 -74 0 -88 -51 -115 -88 -46 -15 28 -10 102
8 124 18 21 57 19 70 -4z"/>
<path d="M6120 848 c-97 -16 -110 -19 -110 -28 0 -6 8 -10 18 -10 36 0 42 -20
42 -150 0 -130 -6 -150 -42 -150 -10 0 -18 -7 -18 -15 0 -12 19 -15 110 -15
91 0 110 3 110 15 0 8 -8 15 -19 15 -35 0 -40 23 -43 186 l-3 160 -45 -8z"/>
<path d="M6635 851 c-69 -17 -97 -50 -75 -91 20 -37 57 -25 84 28 13 25 23 32
46 32 39 0 60 -24 60 -68 0 -36 -1 -38 -76 -71 -107 -48 -134 -73 -134 -121 0
-50 35 -80 94 -80 44 0 103 29 113 56 5 13 10 9 22 -17 13 -28 22 -35 53 -37
38 -3 78 11 78 28 0 6 -9 10 -20 10 -32 0 -40 32 -40 154 0 105 -2 117 -22
141 -33 38 -111 53 -183 36z m94 -287 c-36 -38 -99 -28 -99 16 0 19 43 62 85
83 l30 15 3 -45 c3 -36 -1 -50 -19 -69z"/>
<path d="M8299 846 c-98 -26 -156 -103 -147 -196 16 -161 222 -230 346 -116
145 131 -4 365 -199 312z m96 -42 c67 -44 73 -205 10 -264 -27 -25 -76 -30
-101 -9 -25 21 -44 79 -44 136 0 116 65 183 135 137z"/>
<path d="M8840 849 c-14 -6 -40 -24 -57 -42 -30 -28 -33 -29 -33 -10 0 55 -13
61 -100 42 -55 -12 -64 -23 -25 -33 36 -9 45 -42 45 -157 0 -107 -9 -139 -40
-139 -11 0 -20 -7 -20 -15 0 -12 19 -15 115 -15 96 0 115 3 115 15 0 9 -9 15
-22 15 -46 0 -53 14 -52 97 2 138 33 201 83 167 31 -22 64 -14 75 19 8 21 6
31 -5 41 -21 20 -51 26 -79 15z"/>
<path d="M9505 846 c-39 -17 -55 -37 -62 -79 -8 -50 14 -82 93 -135 71 -48 88
-78 64 -108 -30 -35 -102 -6 -126 52 -22 52 -34 41 -34 -31 0 -58 12 -85 22
-53 3 9 11 9 34 0 64 -25 126 -19 166 17 28 25 33 36 32 72 -1 37 -7 48 -42
78 -22 20 -60 50 -84 66 -53 38 -64 80 -24 91 35 9 54 0 74 -36 26 -45 42 -38
42 19 0 46 -1 48 -27 48 -16 -1 -44 2 -63 6 -22 4 -46 2 -65 -7z"/>
<path d="M10406 849 c-57 -14 -99 -43 -123 -86 -45 -82 -37 -156 23 -223 40
-44 83 -62 149 -62 66 0 109 18 148 61 64 71 73 156 24 231 -42 62 -141 98
-221 79z m93 -45 c76 -54 65 -253 -17 -282 -65 -23 -122 42 -122 140 0 119 69
190 139 142z"/>
<path d="M10925 851 c-17 -4 -43 -16 -58 -25 -27 -18 -27 -18 -27 4 0 21 -3
22 -62 15 -35 -4 -66 -9 -70 -12 -15 -8 -8 -23 10 -23 39 0 42 -16 42 -235 0
-115 -4 -215 -8 -221 -4 -6 -17 -14 -29 -18 -52 -17 -16 -26 97 -26 72 0 120
4 120 10 0 5 -12 13 -27 16 -48 12 -53 21 -53 106 l0 79 29 -22 c35 -25 115
-28 159 -5 129 67 127 279 -3 343 -30 16 -87 22 -120 14z m82 -55 c25 -22 28
-31 31 -105 2 -45 1 -92 -2 -106 -22 -87 -134 -85 -167 2 -14 38 -11 141 7
178 27 57 85 71 131 31z"/>
<path d="M800 841 c0 -6 12 -16 28 -23 27 -13 27 -15 33 -128 6 -130 20 -170
70 -196 54 -28 147 -17 178 20 20 24 31 19 31 -15 0 -24 3 -30 16 -25 9 3 40
6 70 6 40 0 54 4 54 14 0 9 -12 16 -27 18 -36 4 -40 24 -42 201 l-1 137 -75 0
c-60 0 -75 -3 -75 -15 0 -8 9 -15 20 -15 33 0 43 -35 38 -141 -3 -80 -8 -104
-24 -126 -28 -37 -82 -43 -110 -12 -17 18 -19 39 -22 165 l-3 144 -80 0 c-43
0 -79 -4 -79 -9z"/>
</g>
</svg>
