<svg version="1.0" xmlns="http://www.w3.org/2000/svg" width="1266.667" height="306.667" viewBox="0 0 950 230"><path d="M.2 89.1l.3 89.4 2.2 4.2c4.7 8.8 13.6 15.1 32.4 23.2 10.7 4.5 58.9 22.3 64.1 23.6 2.2.6 38.8-12.1 62.3-21.5 23-9.2 35.7-18.6 38.6-28.5 1.2-4.2 1.4-19.3 1.4-92 0-76.7-.2-87-1.5-86.9-.8.1-9.8 1.6-20 3.3-29 4.8-43.6 6.2-70.5 6.8-25.3.6-41-.2-65.5-3.3C32.9 6 8.4 1.9 2.2.3L-.1-.2l.3 89.3zm23.9-75.7c34.6 5.9 46.9 7 75.4 7.1 20 0 30.6-.5 41.1-1.8 12.7-1.6 40.9-5.8 49.2-7.3l3.2-.6v29.6c0 19.2-.4 29.6-1 29.6-.8 0-13.1 2-34.7 5.6l-3.3.5v-4.7c0-3.5-.3-4.5-1.4-4.1-1.5.6-10.9 1.9-26.6 3.7-5.2.6-12.8 2.3-17 3.7-4.1 1.4-7.9 2.5-8.5 2.5-.5 0-4.3-1.2-8.2-2.6-5-1.9-11.6-3.1-21.5-4.1-13.6-1.4-17-1.9-21-3.1-1.5-.4-1.8.1-1.8 3.5 0 2.2-.4 4.2-.9 4.5-.5.4-8.9-.7-18.7-2.4-9.8-1.6-18.2-3-18.6-3-.5 0-.8-13.3-.8-29.5S9.1 11 9.3 11c.2 0 6.8 1.1 14.8 2.4zm63.5 68.1c3.2.9 7.5 2.5 9.5 3.6 3.6 1.8 3.8 1.8 7.5 0 7.3-3.5 13.6-5.1 23.7-6.1 5.6-.6 11.7-1.2 13.5-1.5l3.2-.4v59.8l-3.2.5c-1.8.3-7.8 1.1-13.3 1.6-11.9 1.3-16.4 2.4-22.7 5.2l-4.7 2.1-4.8-2.1c-7-3-11.5-4-23.3-5.2-5.8-.5-12-1.3-13.7-1.6l-3.3-.5v-29.3c0-16.1.2-29.5.5-29.7.9-1 25.3 1.9 31.1 3.6zM28.3 96c9.8 1.6 18.2 3.2 18.7 3.5 1.3.8 1.3 21.2.1 21.9-.5.4-8.9-.7-18.7-2.4-9.8-1.6-18.2-3-18.6-3-.5 0-.8-5.2-.8-11.5S9.3 93 9.8 93c.4 0 8.7 1.3 18.5 3zm164.7 8.5c0 6.3-.4 11.5-.8 11.5-.5 0-7.3 1.1-15.3 2.4-7.9 1.3-16.3 2.7-18.6 3l-4.3.6V99.1l3.3-.6c1.7-.3 9.5-1.6 17.2-2.9 20.8-3.5 18.5-4.6 18.5 8.9zm-161 38c8.5 1.4 22.3 3.2 30.5 4.1 19.7 2 27.8 3.8 33.5 7.3l4.8 2.9 3.3-2.1c6.5-4 12.7-5.6 27.5-7.2 17.2-1.8 40.4-5 51.1-7.1 4.1-.8 8.1-1.4 9-1.4 1.2 0 1.4 2.5 1.1 17.7-.3 16.1-.5 18.2-2.5 21.9-4.1 7.7-12.5 13.4-30.9 21.4-13.4 5.7-56.5 21.2-58.9 21.2-2.5-.1-44.4-15.4-59.4-21.7-17.4-7.3-27.2-14.6-30.5-22.7-1.2-2.9-1.6-7.7-1.6-20.9v-17.2l3.8.7c2 .4 10.7 1.8 19.2 3.1z" style="fill:white;stroke:none"
/><path d="M37.7 27.7c-.2.5-1 2.5-1.6 4.5-1.1 3.3-1.6 3.8-4.4 3.8-1.8 0-4.3.3-5.6.7-2.4.6-2.3.7 1.8 4.2l4.2 3.6-1.5 4.7c-.7 2.6-1.1 4.9-.9 5.2.3.3 2.5-.8 4.8-2.5l4.3-3.1 4.2 3.1c2.4 1.7 4.5 3 4.7 2.8.2-.2-.2-2.8-.9-5.7-1.3-5.7-1.6-5.1 4.6-9.6 2.6-1.8 1.5-2.7-4.2-3.4-4.5-.5-4.8-.7-6.2-4.8-1.4-4-2.4-5.1-3.3-3.5zM160.6 31.5c-1.6 4-2.1 4.5-4.9 4.5-1.8 0-4.3.3-5.6.7-2.4.6-2.3.7 1.9 4.3l4.3 3.7-1.6 4.6c-.8 2.5-1.3 4.8-1 5.1.3.3 2.5-.8 5-2.5l4.4-3 4.2 3.1c4.5 3.3 5.5 2.7 3.8-2.2-1.7-4.9-1.3-6.1 3-9.2 2.2-1.5 3.8-3 3.5-3.3-.2-.3-2.8-.8-5.7-1.2-5.1-.6-5.3-.7-6.7-4.9-.7-2.3-1.7-4.2-2.1-4.2-.5 0-1.6 2-2.5 4.5zM98.5 37l-1.7 5h-5.4c-3 0-5.4.4-5.4 1 0 .5.3 1 .8 1 .4 0 2.2 1.3 4 2.8l3.4 2.8-1.5 5.2c-.9 2.9-1.3 5.2-.8 5.2.4 0 2.5-1.3 4.8-3l4-3 4.3 3.1c2.3 1.7 4.4 2.8 4.7 2.5.3-.3 0-1.9-.6-3.7-1.8-5.3-1.4-7.2 2.4-9.8 1.9-1.3 3.5-2.7 3.5-3.2 0-.4-2.3-.9-5.2-1.1l-5.2-.3-1.5-4.8c-.8-2.6-1.8-4.7-2.2-4.7-.4 0-1.5 2.2-2.4 5zM36.9 154.7c-4 4.5-4.6 8.7-2.3 16 .5 1.6.4 1.6-.5.2-1.7-2.6-6.6-4.3-8.9-3-2.8 1.5-3.8 5-1.9 6.8 1.2 1.3 1.6 1.2 3-.1 2.2-2.2 4.1-2 7.7 1 2.5 2.2 3 3.2 2.5 5.4-.8 3.4 1.6 5.8 3.5 3.5.7-.8 1-2.4.7-3.5-.3-1.3.5-3 2.3-5 3-3.2 6.1-3.8 8-1.6 1.6 2 4 .9 4-2 0-2.2-3.3-5.4-5.6-5.4-.7 0-2.6 1.2-4.3 2.6l-3.1 2.6 1-2.7c1.9-5 1.2-10.2-1.8-13.6-2.6-2.9-2.8-3-4.3-1.2zM160.1 155.9c-3 4.2-3.5 7.9-1.7 13.1 1.5 4.3 1.5 4.4-.1 2.4-2.7-3.3-5.8-4.5-8.6-3.5-2.7 1-3.9 3.3-3.1 5.6.7 1.7 4.4 2.1 4.4.5 0-.6 1-1 2.3-1 3.1 0 8.1 5.2 7.3 7.7-.8 2.5.8 4.7 2.9 3.9 1.2-.4 1.6-1.4 1.3-3.1-.4-1.7.3-3.3 2.5-5.5 3.2-3.3 5.8-3.8 7.7-1.6 1.6 2 4 .9 4-2s-3.9-5.7-6.6-4.8c-1 .4-2.9 1.6-4.1 2.7l-2.2 1.9 1.4-4.7c1.6-5.3.6-9.4-3.3-12.8-1.9-1.8-2-1.7-4.1 1.2zM97 171.2c-3.5 4.7-3.9 9.9-1.5 16.9l1.5 4.4-2.3-2.6c-4.3-5.1-9.3-6.3-12.7-2.9-2.6 2.6-2.6 6.6 0 8 1.6.8 2.2.7 3.2-1 1.9-3 5.3-2.4 9.7 1.8 3.7 3.5 4 4.2 3.4 7.5-.4 2.8-.2 3.8 1.1 4.3 2.7 1 4.8-1.5 4.2-5.2-.6-2.7-.1-3.6 3.4-6.8 4.2-3.7 7.7-4.6 8.6-2.2.9 2.2 3.2 2.7 4.9 1 2.1-2.2 1.9-4.1-1-6.9-3.4-3.5-7-3.2-11.1.9-1.9 1.9-3.4 3.3-3.4 3.3 0-.1.7-2.4 1.5-5.1.8-2.7 1.5-6.1 1.5-7.6 0-2.7-5.5-12-7.1-12-.5 0-2.2 1.9-3.9 4.2zM230 33.3v4.4l4.8.6c3.9.4 5.3 1.2 8.4 4.6 4.2 4.8 4.7 6 37.3 97.9l21.9 61.3 5.9-.3 5.9-.3 17.7-45.7c9.8-25.2 18-46 18.2-46.3.3-.2 7.3 20.4 15.6 45.8l15.1 46.2h12.5l23.7-76.3c15.1-48.3 24.7-77.7 26.3-80.1 3-4.5 8-7.1 13.6-7.1h4.1v-9.1l-8.2.7c-10.8 1-22.3 1-32.5 0l-8.3-.7V38h6c7.7 0 10.5 2.3 9.7 8-.5 3.7-30.2 100.2-31.6 102.8-.7 1.2-33.2-99.7-33.1-103 0-3.3 4.3-6.9 8.8-7.5l4.2-.6v-8.9l-6.7.9c-8.7 1-37.4 1-48 0l-8.3-.8v4.5c0 4.5.1 4.6 3 4.6 1.7 0 4.4.7 6.1 1.5 5.5 2.9 8.6 8.9 15.5 30l6.6 20.1-12.8 32.7c-7 18-13 32.7-13.3 32.7-.3 0-8.7-22.2-18.5-49.3-19.8-54.3-21.1-59.3-16.6-65 1.7-2.1 3-2.7 6.1-2.7h3.9v-9.1l-7.7.8c-9.9 1-36.3 1-47 0L230 29v4.3zM662 33.7V38h3.9c5.9 0 8.3 2.5 9.2 9.6 1.1 8.9 1 126-.1 132.8-1.2 7.3-3 9.4-8.4 9.8-3.8.3-4.1.5-4.3 3.3-.4 6.9-2 6.5 27.3 6.5H716v-9.9l-4.2-.3c-3.1-.2-4.6-1-6.2-3.1-2-2.7-2.1-4.1-2.4-39.1l-.3-36.3 5.1-5.6c6.5-7.1 13.4-10.6 22.6-11.3 9.4-.8 14.7 1.9 18.6 9.5l2.8 5.3v35.9c0 30.8-.2 36.4-1.6 39.9-1.7 4.1-4.5 5.6-9.6 5.4-1.5-.1-1.8.7-1.8 4.7v4.9l26.8-.2 26.7-.3v-9l-4.5-.5c-4.1-.5-4.7-.9-6.5-4.5-1.9-3.8-2-6.1-2.1-41 0-40.6-.2-42-6.4-51.8-5.9-9.4-17.6-14.7-32.4-14.7-12.9 0-22.9 3.5-32.7 11.1L703 93V29.5h-41v4.2zM787 33.4V38h4.4c5.5 0 8.4 2.3 9.6 7.5.5 2.2 1 22.6 1 45.4 0 22.8.5 45.8 1 51 3.3 31.9 15.9 48.6 42.2 56.2 10.3 2.9 34.5 3.8 44.2 1.5 23.5-5.5 38.5-22.2 42.6-47.1.5-3.3 1-27.3 1-53.5.1-30.7.5-49 1.2-51.8 1.5-5.8 5.6-9.2 11.4-9.2h4.4v-9.2l-7.7.8c-10.5 1-18.9 1-30.5.1L902 29v9h4.3c5.8 0 8.8 1.8 11.2 6.5 1.9 3.8 2 6.3 2.3 50.5.2 29.2-.1 49.5-.7 54.5-3.4 25.2-23.2 40.4-49.7 38.2-14.3-1.3-24.2-7.3-30.2-18.5-6.2-11.6-6.4-13.8-6.9-66.7-.3-32-.1-50.1.6-54 1.3-7.4 4.3-10.5 10.2-10.5h3.9v-9l-7.7.8c-10.5 1-36.1.9-45-.2l-7.3-.8v4.6zM471 79.6c-14.2 3-26.8 12.2-30.3 22-2.2 6.2-2.1 8.9.2 14 2.2 4.8 6.3 7 11.5 6 7-1.3 10.9-6.4 11.9-15.4 1.2-10.4 7.6-16.2 17.9-16.2 3.1 0 7.1.9 9.8 2.1 9.1 4.1 11.4 8.1 11.2 19.3-.1 4.4-.3 8-.5 8.1-.1.1-8.5 2.5-18.6 5.3-22.1 6.3-31.5 10.1-38.2 15.4-9.7 7.7-13.5 17.1-12.7 31.6.5 9.2 2.8 14.5 9.1 21 11.1 11.4 33.7 11.7 54.7.6 6.1-3.2 6.6-3.3 7.7-1.7 4.5 6.7 9.7 8.3 25.8 8.3H541v-5c0-4.8-.1-5-2.8-5-1.7 0-3.7-.9-4.8-2.1-1.8-2-1.9-4.6-2.5-42.3-.3-24-.9-41.3-1.6-43.1-4.5-13-12.7-20-27.2-23.1-8.3-1.7-22.6-1.7-31.1.2zm32 75.2v21.8l-4.6 2.2c-9.9 4.9-24.1 5.3-30.5.9-5.7-3.9-7.4-7.1-7.4-14 .1-10 6-18.3 16.7-23.8 4.4-2.3 22.3-8.7 24.6-8.8.9-.1 1.2 4.9 1.2 21.7zM589.2 80c-19.8 5.3-31.2 17.2-31.2 32.5 0 8.1 2.5 14 8.6 20s12.7 9.6 34.4 18.9c23.3 10 28.9 15.1 27.7 25.5-.9 8-7.9 12.5-20.7 13.4-16.3 1-28.9-7.4-37.2-25.1l-3.9-8.2H558v43h4.4c2.6 0 4.8-.6 5.6-1.5 1.6-1.9 4.7-1.9 11.9-.1 8.1 2.1 22.5 3.5 30.6 3 18.2-1.1 33.8-10.1 40.2-23.3 2.3-4.6 2.8-6.9 2.8-13.1-.1-9.3-3-15.5-10.5-22.3-6.6-6-12.6-9.3-30.2-17-21.3-9.3-27.8-14.6-27.8-22.5 0-5.4 2.6-9.1 8.3-11.8 14.5-6.7 30.1.1 38.8 17 3.5 6.8 5.1 8 9.9 7.3l2.5-.4.3-16.7.2-16.7-6.2.2c-3.5.1-9-.6-12.3-1.5-3.4-1-11.2-1.9-18-2.2-9.8-.3-13.3-.1-19.3 1.6z" style="fill:white;stroke:none"/></svg>